<?xml version="1.0" standalone="no"?>
<!DOCTYPE svg PUBLIC "-//W3C//DTD SVG 1.1//EN" "http://www.w3.org/Graphics/SVG/1.1/DTD/svg11.dtd">
<svg xmlns:xlink="http://www.w3.org/1999/xlink" xmlns="http://www.w3.org/2000/svg" viewBox="0 0 190 222.76626055386942" preserveAspectRatio="xMidYMid meet" class="css-14no893" id="bfhchaea" width="190" height="222.76626586914062"><defs id="SvgjsDefs14259"/><g id="SvgjsG14260" featurekey="1p4tPl-0" transform="matrix(1.7513682564503517,0,0,1.7513682564503517,7.43158717748241,-8.756841282251758)" fill="#EEDC34"><path xmlns="http://www.w3.org/2000/svg" d="m 46.3125,5 c -0.703447,0 -1.28125,0.5778036 -1.28125,1.28125 l 0,3.375 c -3.588434,0.390665 -6.98582,1.277251 -10.125,2.59375 l 0,16.28125 c 0,2.013333 -1.611579,3.625 -3.625,3.625 -2.013246,0 -3.65625,-1.611667 -3.65625,-3.625 l 0,-12.125 c -7.138381,5.360276 -11.65625,13.341037 -11.65625,22.25 0,1.494855 -0.0064,4.56869 -1.125,5.5 -3.323955,2.767426 -4.8125,2.59757 -4.8125,4.75 0,5.919307 17.522843,10.71875 39.96875,10.71875 22.446082,0 39.96875,-4.799443 39.96875,-10.71875 0,-2.15243 -1.488405,-1.982574 -4.8125,-4.75 -1.118586,-0.93131 -1.125,-4.005145 -1.125,-5.5 0,-8.90898 -4.517695,-16.889724 -11.65625,-22.25 l 0,12.125 c 0,2.013333 -1.643004,3.625 -3.65625,3.625 -2.013246,0 -3.625,-1.611667 -3.625,-3.625 l 0,-16.28125 c -3.139005,-1.316499 -6.536566,-2.203085 -10.125,-2.59375 l 0,-3.375 C 54.96875,5.5778036 54.390947,5 53.6875,5 l -7.375,0 z M 14.25,56.4375 l 0,6.65625 c 0,1.184558 0.97136,2.125 2.15625,2.125 l 5.03125,0 c 0.754705,3.635984 2.185865,7.028526 4.15625,10.03125 l -3.5625,3.5625 c -0.837278,0.837697 -0.837278,2.193552 0,3.03125 l 5.40625,5.375 c 0.837453,0.83768 2.193623,0.83768 3.03125,0 l 3.5625,-3.5625 c 3.002724,1.97028 6.363982,3.401878 10,4.15625 l 0,5.03125 C 44.03125,94.028413 45.003135,95 46.1875,95 l 7.625,0 c 1.185065,0 2.15625,-0.971587 2.15625,-2.15625 l 0,-5.03125 c 3.635319,-0.754792 6.997976,-2.185918 10,-4.15625 l 3.59375,3.5625 c 0.837453,0.83768 2.162722,0.83768 3,0 l 5.40625,-5.375 c 0.837803,-0.837698 0.837803,-2.193553 0,-3.03125 L 74.40625,75.25 c 1.96951,-3.002007 3.40207,-6.396404 4.15625,-10.03125 l 5.03125,0 c 1.18489,0 2.15625,-0.940442 2.15625,-2.125 l 0,-6.625 c -1.836553,0.873211 -3.802073,1.521581 -5.71875,2.09375 -3.154225,0.818629 -6.352118,1.484355 -9.5625,2 C 69.802917,71.293269 60.898434,79.78125 50,79.78125 c -10.891611,0 -19.792244,-8.498233 -20.46875,-19.21875 -5.142979,-0.741322 -10.220757,-1.86293 -14.96875,-4 -0.101589,-0.04305 -0.210421,-0.07993 -0.3125,-0.125 z" style="" fill="#EEDC34" fill-opacity="1" fill-rule="evenodd" stroke="none"/></g><g id="SvgjsG14261" featurekey="dYASrj-0" transform="matrix(1.7341989769598705,0,0,1.7341989769598705,-2.03212488160096,167.6016613921847)" fill="#252A34"><path d="M7.5586 20 l-5.0098 0 q-0.56640625 0 -0.9716796875 -0.4052734375 t-0.40527 -0.97168 l0 -5.625 q0.009765625 -0.390625 0.205078125 -0.712890625 q0.361328125 -0.60546875 1.103515625 -0.6640625 l5.0781 0 q0.869140625 0 1.201171875 -0.625 q0.1953125 -0.380859375 0.1953125 -0.810546875 q0 -0.419921875 -0.1953125 -0.80078125 q-0.33203125 -0.634765625 -1.201171875 -0.634765625 l-5.0098 0 q-0.56640625 0 -0.9716796875 -0.400390625 t-0.40527 -0.97656 q0 -0.56640625 0.4052734375 -0.9716796875 t0.97168 -0.40527 l5.0098 0 q1.875 0 3.115234375 1.34765625 q1.03515625 1.240234375 1.03515625 2.841796875 q0 1.591796875 -1.005859375 2.8125 q1.005859375 1.23046875 1.005859375 2.8125 q0 1.611328125 -1.03515625 2.841796875 q-1.240234375 1.34765625 -3.115234375 1.34765625 z M7.5586 17.2461 q0.869140625 0 1.201171875 -0.625 q0.1953125 -0.390625 0.1953125 -0.810546875 t-0.19531 -0.81055 q-0.33203125 -0.625 -1.201171875 -0.625 l-3.6328 0 l0 2.8711 l3.6328 0 z M15.234346875 20 q0.56640625 0 0.9716796875 -0.4052734375 t0.40527 -0.97168 l0 -11.25 q0 -0.56640625 -0.4052734375 -0.9716796875 t-0.97168 -0.40527 q-0.576171875 0 -0.9765625 0.4052734375 t-0.40039 0.97168 l0 11.25 q0 0.56640625 0.400390625 0.9716796875 t0.97656 0.40527 z M26.884803124999998 20 q0.576171875 0 0.9765625 -0.4052734375 t0.40039 -0.97168 t-0.40039 -0.97168 t-0.97656 -0.40527 l-3.6719 0 q-0.52734375 0 -0.78125 -0.166015625 q-0.8203125 -0.546875 -0.8203125 -2.333984375 l0 -7.373 q0 -0.56640625 -0.4052734375 -0.9716796875 t-0.97168 -0.40527 q-0.576171875 0 -0.9765625 0.4052734375 t-0.40039 0.97168 l0 7.373 q0 2.431640625 1.171875 3.842773438 t3.1836 1.4111 l3.6719 0 z M39.0625375 20 l-7.1777 0 q-0.576171875 0 -0.9765625 -0.4052734375 t-0.40039 -0.97168 t0.40039 -0.97168 t0.97656 -0.40527 l7.1777 0 q0.56640625 0 0.9716796875 0.4052734375 t0.40527 0.97168 t-0.40527 0.97168 t-0.97168 0.40527 z M39.0625375 8.75 l-7.1777 0 q-0.576171875 0 -0.9765625 -0.400390625 t-0.40039 -0.97656 q0 -0.56640625 0.400390625 -0.9716796875 t0.97656 -0.40527 l7.1777 0 q0.56640625 0 0.9716796875 0.4052734375 t0.40527 0.97168 q0 0.576171875 -0.4052734375 0.9765625 t-0.97168 0.40039 z M39.0625375 14.375 l-7.1777 0 q-0.576171875 0 -0.9765625 -0.400390625 t-0.40039 -0.97656 q0 -0.56640625 0.400390625 -0.9716796875 t0.97656 -0.40527 l7.1777 0 q0.56640625 0 0.9716796875 0.4052734375 t0.40527 0.97168 q0 0.576171875 -0.4052734375 0.9765625 t-0.97168 0.40039 z M50.419959375 20 q0.576171875 0 0.9765625 -0.4052734375 t0.40039 -0.97168 t-0.40039 -0.97168 t-0.97656 -0.40527 l-3.6719 0 q-0.52734375 0 -0.78125 -0.166015625 q-0.8203125 -0.546875 -0.8203125 -2.333984375 l0 -7.373 q0 -0.56640625 -0.4052734375 -0.9716796875 t-0.97168 -0.40527 q-0.576171875 0 -0.9765625 0.4052734375 t-0.40039 0.97168 l0 7.373 q0 2.431640625 1.171875 3.842773438 t3.1836 1.4111 l3.6719 0 z M71.4943125 20 q-0.400390625 0 -0.7373046875 -0.2099609375 t-0.5127 -0.59082 l-3.9551 -8.5449 l-2.4707 5.3613 q-0.400390625 0.80078125 -1.240234375 0.80078125 q-0.283203125 0 -0.5859375 -0.13671875 q-0.80078125 -0.390625 -0.80078125 -1.25 q0 -0.283203125 0.126953125 -0.576171875 l3.7305 -8.0566 q0.439453125 -0.80078125 1.240234375 -0.80078125 q0.810546875 0 1.25 0.80078125 l5.2051 11.25 q0.126953125 0.283203125 0.126953125 0.56640625 q0 0.244140625 -0.087890625 0.478515625 q-0.185546875 0.52734375 -0.712890625 0.78125 q-0.283203125 0.126953125 -0.576171875 0.126953125 z M61.1035125 19.980469 q-0.576171875 0 -0.9765625 -0.4052734375 t-0.40039 -0.97168 q0 -0.576171875 0.400390625 -0.9765625 t0.97656 -0.40039 q0.56640625 0 0.9716796875 0.400390625 t0.40527 0.97656 q0 0.56640625 -0.4052734375 0.9716796875 t-0.97168 0.40527 z M81.20114375 20 q1.416015625 0 2.607421875 -0.595703125 t2.041 -1.7188 q1.4453125 -2.03125 1.4453125 -4.6875 q0 -2.646484375 -1.4453125 -4.6875 q-0.849609375 -1.123046875 -2.041015625 -1.71875 t-2.6074 -0.5957 l-5 0 q-0.576171875 0 -0.9765625 0.4052734375 t-0.40039 0.97168 l0 3.418 q0 0.576171875 0.400390625 0.9765625 t0.97656 0.40039 q0.56640625 0 0.9716796875 -0.400390625 t0.40527 -0.97656 l0 -2.041 l3.623 0 q1.796875 0 2.666015625 1.533203125 q0.68359375 1.2109375 0.68359375 2.71484375 q0 1.748046875 -0.908203125 3.046875 q-0.908203125 1.201171875 -2.44140625 1.201171875 l-5 0 q-0.576171875 0 -0.9765625 0.4052734375 t-0.40039 0.97168 t0.40039 0.97168 t0.97656 0.40527 l5 0 z M97.998084375 20 l-7.1777 0 q-0.576171875 0 -0.9765625 -0.4052734375 t-0.40039 -0.97168 t0.40039 -0.97168 t0.97656 -0.40527 l7.1777 0 q0.56640625 0 0.9716796875 0.4052734375 t0.40527 0.97168 t-0.40527 0.97168 t-0.97168 0.40527 z M97.998084375 8.75 l-7.1777 0 q-0.576171875 0 -0.9765625 -0.400390625 t-0.40039 -0.97656 q0 -0.56640625 0.400390625 -0.9716796875 t0.97656 -0.40527 l7.1777 0 q0.56640625 0 0.9716796875 0.4052734375 t0.40527 0.97168 q0 0.576171875 -0.4052734375 0.9765625 t-0.97168 0.40039 z M97.998084375 14.375 l-7.1777 0 q-0.576171875 0 -0.9765625 -0.400390625 t-0.40039 -0.97656 q0 -0.56640625 0.400390625 -0.9716796875 t0.97656 -0.40527 l7.1777 0 q0.56640625 0 0.9716796875 0.4052734375 t0.40527 0.97168 q0 0.576171875 -0.4052734375 0.9765625 t-0.97168 0.40039 z M109.35550625 20 q0.576171875 0 0.9765625 -0.4052734375 t0.40039 -0.97168 t-0.40039 -0.97168 t-0.97656 -0.40527 l-3.6719 0 q-0.52734375 0 -0.78125 -0.166015625 q-0.8203125 -0.546875 -0.8203125 -2.333984375 l0 -7.373 q0 -0.56640625 -0.4052734375 -0.9716796875 t-0.97168 -0.40527 q-0.576171875 0 -0.9765625 0.4052734375 t-0.40039 0.97168 l0 7.373 q0 2.431640625 1.171875 3.842773438 t3.1836 1.4111 l3.6719 0 z" fill="#252A34"/></g><g id="SvgjsG14262" featurekey="dYASrj-1" transform="matrix(0.7483943603324736,0,0,0.7483943603324736,-0.5846812204829851,207.51261113967345)" fill="#252A34"><path d="M12.549 20 q-0.400390625 0 -0.7373046875 -0.2099609375 t-0.5127 -0.59082 l-3.9551 -8.5449 l-2.4707 5.3613 q-0.400390625 0.80078125 -1.240234375 0.80078125 q-0.283203125 0 -0.5859375 -0.13671875 q-0.80078125 -0.390625 -0.80078125 -1.25 q0 -0.283203125 0.126953125 -0.576171875 l3.7305 -8.0566 q0.439453125 -0.80078125 1.240234375 -0.80078125 q0.810546875 0 1.25 0.80078125 l5.2051 11.25 q0.126953125 0.283203125 0.126953125 0.56640625 q0 0.244140625 -0.087890625 0.478515625 q-0.185546875 0.52734375 -0.712890625 0.78125 q-0.283203125 0.126953125 -0.576171875 0.126953125 z M2.1582 19.980469 q-0.576171875 0 -0.9765625 -0.4052734375 t-0.40039 -0.97168 q0 -0.576171875 0.400390625 -0.9765625 t0.97656 -0.40039 q0.56640625 0 0.9716796875 0.400390625 t0.40527 0.97656 q0 0.56640625 -0.4052734375 0.9716796875 t-0.97168 0.40527 z M21.17183125 20 q-2.080078125 0 -3.671875 -1.337890625 q-0.400390625 -0.341796875 -0.791015625 -0.888671875 t-0.65918 -1.3184 t-0.26855 -1.7969 l0 -3.457 q0 -0.56640625 0.4052734375 -0.9716796875 t0.97168 -0.40527 t0.97168 0.40527 t0.40527 0.97168 l0 3.457 q0 0.95703125 0.4052734375 1.5234375 t1.0107 0.81543 t1.2207 0.24902 q0.60546875 0 1.2109375 -0.2490234375 t1.0107 -0.81543 t0.40527 -1.5234 l0 -7.2852 q0 -0.56640625 0.4052734375 -0.9716796875 t0.97168 -0.40527 q0.576171875 0 0.9765625 0.4052734375 t0.40039 0.97168 l0 7.2852 q0 1.025390625 -0.263671875 1.796875 t-0.65918 1.3184 t-0.7959 0.88867 q-1.591796875 1.337890625 -3.662109375 1.337890625 z M17.15823125 8.75 q-0.56640625 0 -0.9716796875 -0.400390625 t-0.40527 -0.97656 q0 -0.56640625 0.4052734375 -0.9716796875 t0.97168 -0.40527 t0.97168 0.40527 t0.40527 0.97168 q0 0.576171875 -0.4052734375 0.9765625 t-0.97168 0.40039 z M33.398453125 20 q-0.576171875 0 -0.9765625 -0.4052734375 t-0.40039 -0.97168 l0 -9.873 l-2.5293 0 q-0.576171875 0 -0.9765625 -0.400390625 t-0.40039 -0.97656 q0 -0.56640625 0.400390625 -0.9716796875 t0.97656 -0.40527 l3.9063 0 q0.56640625 0 0.9716796875 0.4052734375 t0.40527 0.97168 l0 11.25 q0 0.56640625 -0.4052734375 0.9716796875 t-0.97168 0.40527 z M37.304653125 8.75 q-0.56640625 0 -0.9716796875 -0.400390625 t-0.40527 -0.97656 q0 -0.56640625 0.4052734375 -0.9716796875 t0.97168 -0.40527 t0.97168 0.40527 t0.40527 0.97168 q0 0.576171875 -0.4052734375 0.9765625 t-0.97168 0.40039 z M47.148421875 20 q1.923828125 0 3.515625 -0.947265625 t2.5391 -2.5342 t0.94727 -3.5107 q0 -1.865234375 -0.95703125 -3.53515625 q-0.927734375 -1.572265625 -2.490234375 -2.509765625 q-0.3515625 -0.185546875 -0.712890625 -0.185546875 q-0.166015625 0 -0.517578125 0.087890625 t-0.66406 0.58594 q-0.185546875 0.33203125 -0.185546875 0.68359375 q0 0.17578125 0.0927734375 0.537109375 t0.58105 0.66406 q0.986328125 0.5859375 1.54296875 1.5625 t0.55664 2.1094 q0 1.162109375 -0.5712890625 2.124023438 t-1.5381 1.5381 t-2.1387 0.57617 q-1.162109375 0 -2.12890625 -0.576171875 t-1.543 -1.5381 t-0.57617 -2.124 q0 -0.3515625 0.05859375 -0.693359375 l0.019531 -0.21484 q0 -0.44921875 -0.29296875 -0.849609375 q-0.37109375 -0.517578125 -1.09375 -0.517578125 q-0.44921875 0 -0.849609375 0.2880859375 t-0.49805 0.85449 t-0.097656 1.1328 q0 1.923828125 0.947265625 3.510742188 t2.5342 2.5342 t3.5205 0.94727 z M57.675753125 20 q0.576171875 0 0.9765625 -0.400390625 t0.40039 -0.97656 l0 -6.9043 l2.8027 3.9746 q0.44921875 0.5859375 1.123046875 0.5859375 q0.6640625 0 1.1328125 -0.5859375 l5.3027 -7.5195 q0.244140625 -0.380859375 0.244140625 -0.791015625 q0 -0.1171875 -0.0537109375 -0.44921875 t-0.53223 -0.67383 q-0.380859375 -0.263671875 -0.791015625 -0.263671875 q-0.1171875 0 -0.4443359375 0.0634765625 t-0.67871 0.52246 l-4.1797 5.9277 l-4.1699 -5.9277 q-0.46875 -0.576171875 -1.123046875 -0.576171875 q-0.703125 0 -1.123046875 0.56640625 q-0.263671875 0.361328125 -0.263671875 0.80078125 l0 11.25 q0 0.576171875 0.400390625 0.9765625 t0.97656 0.40039 z M72.988278125 20 q-0.302734375 0 -0.576171875 -0.126953125 q-0.537109375 -0.25390625 -0.712890625 -0.78125 q-0.087890625 -0.234375 -0.087890625 -0.478515625 q0 -0.283203125 0.1171875 -0.56640625 l5.2051 -11.25 q0.439453125 -0.80078125 1.25 -0.80078125 q0.80078125 0 1.240234375 0.80078125 l3.7402 8.0566 q0.1171875 0.29296875 0.1171875 0.576171875 q0 0.859375 -0.80078125 1.25 q-0.29296875 0.13671875 -0.5859375 0.13671875 q-0.83984375 0 -1.240234375 -0.80078125 l-2.4707 -5.3613 l-3.9453 8.5449 q-0.185546875 0.380859375 -0.5224609375 0.5908203125 t-0.72754 0.20996 z M83.379078125 19.980469 q-0.576171875 0 -0.9765625 -0.4052734375 t-0.40039 -0.97168 q0 -0.576171875 0.400390625 -0.9765625 t0.97656 -0.40039 q0.56640625 0 0.9716796875 0.400390625 t0.40527 0.97656 q0 0.56640625 -0.4052734375 0.9716796875 t-0.97168 0.40527 z M91.308609375 20 q-0.576171875 0 -0.9765625 -0.4052734375 t-0.40039 -0.97168 l0 -9.873 l-2.5293 0 q-0.576171875 0 -0.9765625 -0.400390625 t-0.40039 -0.97656 q0 -0.56640625 0.400390625 -0.9716796875 t0.97656 -0.40527 l3.9063 0 q0.56640625 0 0.9716796875 0.4052734375 t0.40527 0.97168 l0 11.25 q0 0.56640625 -0.4052734375 0.9716796875 t-0.97168 0.40527 z M95.214809375 8.75 q-0.56640625 0 -0.9716796875 -0.400390625 t-0.40527 -0.97656 q0 -0.56640625 0.4052734375 -0.9716796875 t0.97168 -0.40527 t0.97168 0.40527 t0.40527 0.97168 q0 0.576171875 -0.4052734375 0.9765625 t-0.97168 0.40039 z M99.628878125 20 q0.56640625 0 0.9716796875 -0.4052734375 t0.40527 -0.97168 l0 -11.25 q0 -0.56640625 -0.4052734375 -0.9716796875 t-0.97168 -0.40527 q-0.576171875 0 -0.9765625 0.4052734375 t-0.40039 0.97168 l0 11.25 q0 0.56640625 0.400390625 0.9716796875 t0.97656 0.40527 z M110.156234375 20 q1.923828125 0 3.515625 -0.947265625 t2.5391 -2.5342 t0.94727 -3.5107 q0 -1.865234375 -0.95703125 -3.53515625 q-0.927734375 -1.572265625 -2.490234375 -2.509765625 q-0.3515625 -0.185546875 -0.712890625 -0.185546875 q-0.166015625 0 -0.517578125 0.087890625 t-0.66406 0.58594 q-0.185546875 0.33203125 -0.185546875 0.68359375 q0 0.17578125 0.0927734375 0.537109375 t0.58105 0.66406 q0.986328125 0.5859375 1.54296875 1.5625 t0.55664 2.1094 q0 1.162109375 -0.5712890625 2.124023438 t-1.5381 1.5381 t-2.1387 0.57617 q-1.162109375 0 -2.12890625 -0.576171875 t-1.543 -1.5381 t-0.57617 -2.124 q0 -0.3515625 0.05859375 -0.693359375 l0.019531 -0.21484 q0 -0.44921875 -0.29296875 -0.849609375 q-0.37109375 -0.517578125 -1.09375 -0.517578125 q-0.44921875 0 -0.849609375 0.2880859375 t-0.49805 0.85449 t-0.097656 1.1328 q0 1.923828125 0.947265625 3.510742188 t2.5342 2.5342 t3.5205 0.94727 z M128.671765625 20 q-0.654296875 0 -1.123046875 -0.576171875 l-5.4883 -7.7344 l0 2.7832 q0 0.56640625 -0.400390625 0.9716796875 t-0.97656 0.40527 q-0.56640625 0 -0.9716796875 -0.4052734375 t-0.40527 -0.97168 l0 -7.1094 q0.009765625 -0.068359375 0.0146484375 -0.126953125 t0.014648 -0.097656 l0.0097656 -0.058594 q0.01953125 -0.09765625 0.05859375 -0.185546875 q0.009765625 -0.0390625 0.0146484375 -0.0537109375 t0.014648 -0.03418 l0.019531 -0.039063 l0.019531 -0.039063 l0.019531 -0.039063 t0.019531 -0.03418 l0.029297 -0.043945 q0.05859375 -0.087890625 0.126953125 -0.15625 l0.0097656 -0.0097656 t0.019531 -0.024414 t0.024414 -0.029297 t0.058594 -0.048828 t0.10254 -0.083008 l0.019531 -0.0097656 q0.048828125 -0.0390625 0.087890625 -0.05859375 t0.073242 -0.039063 t0.078125 -0.039063 t0.087891 -0.03418 l0.073242 -0.024414 t0.073242 -0.019531 t0.092773 -0.014648 l0.097656 -0.0097656 t0.10742 -0.014648 l0.3125 0.039063 q0.13671875 0.029296875 0.25390625 0.078125 l0.019531 0.0097656 l0.039063 0.019531 l0.039063 0.019531 l0.039063 0.019531 t0.03418 0.019531 l0.043945 0.029297 l0.10742 0.087891 q0.029296875 0.01953125 0.0390625 0.029296875 l0.019531 0.019531 t0.024414 0.019531 t0.029297 0.024414 t0.048828 0.058594 t0.083008 0.10254 l5.4883 7.7344 l0 -6.9336 q0 -0.56640625 0.4052734375 -0.9716796875 t0.97168 -0.40527 q0.576171875 0 0.9765625 0.4052734375 t0.40039 0.97168 l0 11.25 q0 0.44921875 -0.25390625 0.810546875 q-0.419921875 0.56640625 -1.123046875 0.56640625 z M120.683565625 20 q-0.56640625 0 -0.9716796875 -0.4052734375 t-0.40527 -0.97168 t0.40527 -0.97168 t0.97168 -0.40527 q0.576171875 0 0.9765625 0.4052734375 t0.40039 0.97168 t-0.40039 0.97168 t-0.97656 0.40527 z M143.066421875 20 q-0.576171875 0 -0.9765625 -0.4052734375 t-0.40039 -0.97168 l0 -11.25 q0 -0.56640625 0.400390625 -0.9716796875 t0.97656 -0.40527 l3.9063 0 q0.56640625 0 0.9716796875 0.4052734375 t0.40527 0.97168 q0 0.576171875 -0.4052734375 0.9765625 t-0.97168 0.40039 l-2.5293 0 l0 9.873 q0 0.56640625 -0.4052734375 0.9716796875 t-0.97168 0.40527 z M139.160121875 8.75 q-0.576171875 0 -0.9765625 -0.400390625 t-0.40039 -0.97656 q0 -0.56640625 0.400390625 -0.9716796875 t0.97656 -0.40527 q0.56640625 0 0.9716796875 0.4052734375 t0.40527 0.97168 q0 0.576171875 -0.4052734375 0.9765625 t-0.97168 0.40039 z M158.564490625 20 l-7.1777 0 q-0.576171875 0 -0.9765625 -0.4052734375 t-0.40039 -0.97168 t0.40039 -0.97168 t0.97656 -0.40527 l7.1777 0 q0.56640625 0 0.9716796875 0.4052734375 t0.40527 0.97168 t-0.40527 0.97168 t-0.97168 0.40527 z M158.564490625 8.75 l-7.1777 0 q-0.576171875 0 -0.9765625 -0.400390625 t-0.40039 -0.97656 q0 -0.56640625 0.400390625 -0.9716796875 t0.97656 -0.40527 l7.1777 0 q0.56640625 0 0.9716796875 0.4052734375 t0.40527 0.97168 q0 0.576171875 -0.4052734375 0.9765625 t-0.97168 0.40039 z M158.564490625 14.375 l-7.1777 0 q-0.576171875 0 -0.9765625 -0.400390625 t-0.40039 -0.97656 q0 -0.56640625 0.400390625 -0.9716796875 t0.97656 -0.40527 l7.1777 0 q0.56640625 0 0.9716796875 0.4052734375 t0.40527 0.97168 q0 0.576171875 -0.4052734375 0.9765625 t-0.97168 0.40039 z M168.7988125 20 q1.85546875 0 3.525390625 -0.947265625 q1.572265625 -0.9375 2.509765625 -2.509765625 q0.185546875 -0.341796875 0.185546875 -0.703125 q0 -0.166015625 -0.087890625 -0.517578125 t-0.58594 -0.66406 q-0.341796875 -0.185546875 -0.703125 -0.185546875 q-0.166015625 0 -0.517578125 0.087890625 t-0.66406 0.58594 q-0.5859375 0.986328125 -1.5625 1.54296875 t-2.0996 0.55664 q-1.162109375 0 -2.12890625 -0.576171875 t-1.543 -1.5381 t-0.57617 -2.124 q0 -1.181640625 0.576171875 -2.143554688 t1.543 -1.5381 t2.1289 -0.57617 q0.3515625 0 0.68359375 0.05859375 l0.22461 0.0097656 q0.439453125 0 0.83984375 -0.283203125 q0.52734375 -0.380859375 0.52734375 -1.09375 q0 -0.439453125 -0.29296875 -0.83984375 t-0.85449 -0.50293 t-1.1279 -0.10254 q-1.93359375 0 -3.515625 0.947265625 t-2.5342 2.5391 t-0.95215 3.5254 q0 1.923828125 0.9521484375 3.510742188 t2.5342 2.5342 t3.5156 0.94727 z M178.54489375 20 q-0.576171875 0 -0.9765625 -0.4052734375 t-0.40039 -0.97168 l0 -11.25 q0 -0.56640625 0.400390625 -0.9716796875 t0.97656 -0.40527 q0.56640625 0 0.9716796875 0.4052734375 t0.40527 0.97168 l0 11.25 q0 0.56640625 -0.4052734375 0.9716796875 t-0.97168 0.40527 z M187.03109375 20 q-0.576171875 0 -0.9765625 -0.4052734375 t-0.40039 -0.97168 l0 -11.25 q0 -0.56640625 0.400390625 -0.9716796875 t0.97656 -0.40527 q0.56640625 0 0.9716796875 0.4052734375 t0.40527 0.97168 l0 11.25 q0 0.56640625 -0.4052734375 0.9716796875 t-0.97168 0.40527 z M182.71489375 14.375 q-0.56640625 0 -0.9716796875 -0.400390625 t-0.40527 -0.97656 q0 -0.56640625 0.4052734375 -0.9716796875 t0.97168 -0.40527 q0.576171875 0 0.9765625 0.4052734375 t0.40039 0.97168 q0 0.576171875 -0.400390625 0.9765625 t-0.97656 0.40039 z M200.117078125 20 q-0.654296875 0 -1.123046875 -0.576171875 l-5.4883 -7.7344 l0 2.7832 q0 0.56640625 -0.400390625 0.9716796875 t-0.97656 0.40527 q-0.56640625 0 -0.9716796875 -0.4052734375 t-0.40527 -0.97168 l0 -7.1094 q0.009765625 -0.068359375 0.0146484375 -0.126953125 t0.014648 -0.097656 l0.0097656 -0.058594 q0.01953125 -0.09765625 0.05859375 -0.185546875 q0.009765625 -0.0390625 0.0146484375 -0.0537109375 t0.014648 -0.03418 l0.019531 -0.039063 l0.019531 -0.039063 l0.019531 -0.039063 t0.019531 -0.03418 l0.029297 -0.043945 q0.05859375 -0.087890625 0.126953125 -0.15625 l0.0097656 -0.0097656 t0.019531 -0.024414 t0.024414 -0.029297 t0.058594 -0.048828 t0.10254 -0.083008 l0.019531 -0.0097656 q0.048828125 -0.0390625 0.087890625 -0.05859375 t0.073242 -0.039063 t0.078125 -0.039063 t0.087891 -0.03418 l0.073242 -0.024414 t0.073242 -0.019531 t0.092773 -0.014648 l0.097656 -0.0097656 t0.10742 -0.014648 l0.3125 0.039063 q0.13671875 0.029296875 0.25390625 0.078125 l0.019531 0.0097656 l0.039063 0.019531 l0.039063 0.019531 l0.039063 0.019531 t0.03418 0.019531 l0.043945 0.029297 l0.10742 0.087891 q0.029296875 0.01953125 0.0390625 0.029296875 l0.019531 0.019531 t0.024414 0.019531 t0.029297 0.024414 t0.048828 0.058594 t0.083008 0.10254 l5.4883 7.7344 l0 -6.9336 q0 -0.56640625 0.4052734375 -0.9716796875 t0.97168 -0.40527 q0.576171875 0 0.9765625 0.4052734375 t0.40039 0.97168 l0 11.25 q0 0.44921875 -0.25390625 0.810546875 q-0.419921875 0.56640625 -1.123046875 0.56640625 z M192.128878125 20 q-0.56640625 0 -0.9716796875 -0.4052734375 t-0.40527 -0.97168 t0.40527 -0.97168 t0.97168 -0.40527 q0.576171875 0 0.9765625 0.4052734375 t0.40039 0.97168 t-0.40039 0.97168 t-0.97656 0.40527 z M205.214815625 20 q0.56640625 0 0.9716796875 -0.4052734375 t0.40527 -0.97168 l0 -11.25 q0 -0.56640625 -0.4052734375 -0.9716796875 t-0.97168 -0.40527 q-0.576171875 0 -0.9765625 0.4052734375 t-0.40039 0.97168 l0 11.25 q0 0.56640625 0.400390625 0.9716796875 t0.97656 0.40527 z M215.742171875 20 q1.85546875 0 3.525390625 -0.947265625 q1.572265625 -0.9375 2.509765625 -2.509765625 q0.185546875 -0.341796875 0.185546875 -0.703125 q0 -0.166015625 -0.087890625 -0.517578125 t-0.58594 -0.66406 q-0.341796875 -0.185546875 -0.703125 -0.185546875 q-0.166015625 0 -0.517578125 0.087890625 t-0.66406 0.58594 q-0.5859375 0.986328125 -1.5625 1.54296875 t-2.0996 0.55664 q-1.162109375 0 -2.12890625 -0.576171875 t-1.543 -1.5381 t-0.57617 -2.124 q0 -1.181640625 0.576171875 -2.143554688 t1.543 -1.5381 t2.1289 -0.57617 q0.3515625 0 0.68359375 0.05859375 l0.22461 0.0097656 q0.439453125 0 0.83984375 -0.283203125 q0.52734375 -0.380859375 0.52734375 -1.09375 q0 -0.439453125 -0.29296875 -0.83984375 t-0.85449 -0.50293 t-1.1279 -0.10254 q-1.93359375 0 -3.515625 0.947265625 t-2.5342 2.5391 t-0.95215 3.5254 q0 1.923828125 0.9521484375 3.510742188 t2.5342 2.5342 t3.5156 0.94727 z M225.488253125 20 q0.56640625 0 0.9716796875 -0.4052734375 t0.40527 -0.97168 l0 -11.25 q0 -0.56640625 -0.4052734375 -0.9716796875 t-0.97168 -0.40527 q-0.576171875 0 -0.9765625 0.4052734375 t-0.40039 0.97168 l0 11.25 q0 0.56640625 0.400390625 0.9716796875 t0.97656 0.40527 z M230.195309375 20 q-0.302734375 0 -0.576171875 -0.126953125 q-0.537109375 -0.25390625 -0.712890625 -0.78125 q-0.087890625 -0.234375 -0.087890625 -0.478515625 q0 -0.283203125 0.1171875 -0.56640625 l5.2051 -11.25 q0.439453125 -0.80078125 1.25 -0.80078125 q0.80078125 0 1.240234375 0.80078125 l3.7402 8.0566 q0.1171875 0.29296875 0.1171875 0.576171875 q0 0.859375 -0.80078125 1.25 q-0.29296875 0.13671875 -0.5859375 0.13671875 q-0.83984375 0 -1.240234375 -0.80078125 l-2.4707 -5.3613 l-3.9453 8.5449 q-0.185546875 0.380859375 -0.5224609375 0.5908203125 t-0.72754 0.20996 z M240.586109375 19.980469 q-0.576171875 0 -0.9765625 -0.4052734375 t-0.40039 -0.97168 q0 -0.576171875 0.400390625 -0.9765625 t0.97656 -0.40039 q0.56640625 0 0.9716796875 0.400390625 t0.40527 0.97656 q0 0.56640625 -0.4052734375 0.9716796875 t-0.97168 0.40527 z M253.281140625 20 q-0.654296875 0 -1.123046875 -0.576171875 l-5.4883 -7.7344 l0 2.7832 q0 0.56640625 -0.400390625 0.9716796875 t-0.97656 0.40527 q-0.56640625 0 -0.9716796875 -0.4052734375 t-0.40527 -0.97168 l0 -7.1094 q0.009765625 -0.068359375 0.0146484375 -0.126953125 t0.014648 -0.097656 l0.0097656 -0.058594 q0.01953125 -0.09765625 0.05859375 -0.185546875 q0.009765625 -0.0390625 0.0146484375 -0.0537109375 t0.014648 -0.03418 l0.019531 -0.039063 l0.019531 -0.039063 l0.019531 -0.039063 t0.019531 -0.03418 l0.029297 -0.043945 q0.05859375 -0.087890625 0.126953125 -0.15625 l0.0097656 -0.0097656 t0.019531 -0.024414 t0.024414 -0.029297 t0.058594 -0.048828 t0.10254 -0.083008 l0.019531 -0.0097656 q0.048828125 -0.0390625 0.087890625 -0.05859375 t0.073242 -0.039063 t0.078125 -0.039063 t0.087891 -0.03418 l0.073242 -0.024414 t0.073242 -0.019531 t0.092773 -0.014648 l0.097656 -0.0097656 t0.10742 -0.014648 l0.3125 0.039063 q0.13671875 0.029296875 0.25390625 0.078125 l0.019531 0.0097656 l0.039063 0.019531 l0.039063 0.019531 l0.039063 0.019531 t0.03418 0.019531 l0.043945 0.029297 l0.10742 0.087891 q0.029296875 0.01953125 0.0390625 0.029296875 l0.019531 0.019531 t0.024414 0.019531 t0.029297 0.024414 t0.048828 0.058594 t0.083008 0.10254 l5.4883 7.7344 l0 -6.9336 q0 -0.56640625 0.4052734375 -0.9716796875 t0.97168 -0.40527 q0.576171875 0 0.9765625 0.4052734375 t0.40039 0.97168 l0 11.25 q0 0.44921875 -0.25390625 0.810546875 q-0.419921875 0.56640625 -1.123046875 0.56640625 z M245.292940625 20 q-0.56640625 0 -0.9716796875 -0.4052734375 t-0.40527 -0.97168 t0.40527 -0.97168 t0.97168 -0.40527 q0.576171875 0 0.9765625 0.4052734375 t0.40039 0.97168 t-0.40039 0.97168 t-0.97656 0.40527 z" fill="#252A34"/></g></svg>